Coordinates
version=1
nRows=10
nColumns=34
inDegrees=yes

Units are S.I. units (second, meters, Newtons, ...)
If the header above contains a line with 'inDegrees', this indicates whether rotational values are in degrees (yes) or radians (no).

endheader
time	pelvis_tilt	pelvis_list	pelvis_rotation	pelvis_tx	pelvis_ty	pelvis_tz	hip_flexion_r	hip_adduction_r	hip_rotation_r	knee_angle_r	ankle_angle_r	subtalar_angle_r	mtp_angle_r	hip_flexion_l	hip_adduction_l	hip_rotation_l	knee_angle_l	ankle_angle_l	subtalar_angle_l	mtp_angle_l	lumbar_extension	lumbar_bending	lumbar_rotation	arm_flex_r	arm_add_r	arm_rot_r	elbow_flex_r	pro_sup_r	arm_flex_l	arm_add_l	arm_rot_l	elbow_flex_l	pro_sup_l
      8.34166670	      2.19219658	      4.14351521	   -177.00248112	      0.13051442	      1.04625649	      0.13610815	      6.56550516	      5.53882173	      1.36901170	    121.07327561	    -10.14299896	    -22.60913074	      0.00000000	     34.57371757	     -0.02089265	     -3.55160223	     32.99832048	     -3.43480629	     -3.80464617	      0.00000000	    -17.56691910	      0.77408247	      4.88349915	     -0.62580551	    -21.30835047	     12.47363449	    100.68298953	     94.25729942	    -19.55060962	    -24.39101675	     -7.05974552	    102.71132257	     87.02973178
      8.35000000	      2.58144485	      3.18336857	   -176.11050038	      0.13327727	      1.04083648	      0.13615465	     10.55457696	      4.09182879	      1.13557406	    124.72970349	     -8.92746296	    -19.83917428	      0.00000000	     34.25555706	      1.52440992	     -3.15865863	     37.22183766	     -0.00057896	     -7.41412572	      0.00000000	    -17.87335840	     -0.74953103	      2.30862781	     -1.29953360	    -20.24421549	     12.18928040	     97.51457934	     94.03124636	    -16.23966773	    -25.14447548	     -6.18971650	    102.62959667	     86.83188702
      8.35833330	      2.96511031	      2.22923370	   -175.41201067	      0.13603315	      1.03566612	      0.13678150	     14.58771883	      2.48771821	      1.32371197	    127.77505028	     -7.34165640	    -16.82617287	      0.00000000	     33.66574346	      3.05954547	     -2.63699443	     40.88804835	      3.11295118	    -10.64364260	      0.00000000	    -18.28796196	     -2.13680741	     -0.19076381	     -2.00057142	    -19.30536940	     12.03604777	     94.86186359	     93.78095718	    -12.89127377	    -25.82689664	     -5.10317285	    102.31985691	     86.60843214
      8.36666670	      3.18878986	      1.34054412	   -174.75537052	      0.13910945	      1.03249729	      0.13758223	     18.47080885	      0.99543126	      1.65640013	    130.03784295	     -5.45768315	    -14.00849928	      0.00000000	     32.58508095	      4.53104599	     -1.89120431	     43.77499011	      5.57648892	    -13.27275145	      0.00000000	    -18.99604468	     -3.28860052	     -2.66436835	     -2.78216739	    -18.53062009	     11.88057412	     92.66153544	     93.51106834	     -9.34395338	    -26.44743621	     -3.82106289	    101.89059682	     86.36627598
      8.37500000	      3.39118891	      0.67658791	   -174.34337304	      0.14202871	      1.03102017	      0.13825238	     22.36835237	     -0.33509296	      1.98471373	    131.50532913	     -3.73493419	    -12.00335151	      0.00000000	     31.12077709	      5.65330197	     -0.99726812	     45.87752343	      7.26559126	    -15.66333313	      0.00000000	    -19.43814969	     -4.03722562	     -2.94927352	     -5.59815441	    -17.79016910	      9.75112460	     91.77187960	     92.08390973	     -2.97738676	    -27.19673480	      1.14908149	     99.45965187	     84.77350562
      8.38333330	      3.11929274	      0.02906426	   -174.03017577	      0.14429541	      1.03069401	      0.13926205	     25.65426419	     -1.61707286	      2.24147341	    132.14823179	     -1.60035507	    -10.12013557	      0.00000000	     28.75811960	      6.64273024	     -0.01532643	     47.32943314	      9.01365572	    -16.81164231	      0.00000000	    -20.70501572	     -4.73968866	     -5.42183896	     -6.18793139	    -17.33478772	      9.65470618	     90.33725358	     91.97124634	      0.20651102	    -27.26652445	      1.80903077	     99.36802282	     84.54240966
      8.39166670	      2.90773603	     -0.25979023	   -173.86406412	      0.14630419	      1.03063611	      0.14029943	     29.18300509	     -2.53634905	      2.22988459	    132.04036973	     -0.05286226	     -9.55088627	      0.00000000	     26.17049774	      7.14517416	      0.94024009	     48.28254675	     10.25024026	    -17.91941388	      0.00000000	    -21.45116633	     -4.98207708	     -5.55375163	     -8.89578039	    -16.87434784	      7.59446202	     90.38436296	     91.16440364	      6.18136293	    -27.16763626	      6.39191999	     97.36009247	     82.91555348
      8.40000000	      2.69498544	     -0.40354179	   -173.77228097	      0.14778712	      1.03219801	      0.14145558	     32.90084949	     -3.36072890	      2.06309092	    131.19135221	      1.14523089	     -9.72473825	      0.00000000	     23.19809358	      7.34586947	      1.61914506	     48.67970313	     11.29429506	    -18.21330344	      0.00000000	    -22.15222456	     -4.99553447	     -7.71512436	     -9.76072897	    -16.84090018	      8.01022960	     89.94613616	     91.19262716	      8.73908466	    -26.72619880	      6.44501961	     97.84742620	     82.81934050
      8.40833330	      2.23676581	     -0.19875381	   -173.78347480	      0.14970309	      1.03469830	      0.14268338	     36.44805637	     -3.74213303	      1.56193352	    129.46905381	      1.95040533	    -10.51953443	      0.00000000	     19.67928202	      6.98288006	      1.98071449	     48.61033608	     12.08196567	    -18.11094028	      0.00000000	    -22.89587148	     -4.63943752	     -8.18872344	    -11.98697431	    -16.83487541	      6.78442325	     90.69903076	     91.16913070	     13.10252049	    -26.26991353	      9.31704808	     97.41795976	     81.81075208
      8.41666670	      2.34236367	      0.23989015	   -173.91854546	      0.15136700	      1.03697789	      0.14399408	     40.40370902	     -3.94852929	      0.88325617	    126.78798413	      2.56126137	    -12.09208676	      0.00000000	     16.59017251	      6.28939294	      1.96432199	     48.23122833	     12.42298584	    -17.68183980	      0.00000000	    -22.80191430	     -4.12463582	     -9.76883374	    -13.22587273	    -17.47469382	      7.41178087	     91.14922769	     91.26754948	     15.09452369	    -25.73535914	      9.43943767	     98.86840666	     81.76232814
